# xmcd
#
# Track frame offsets:
# 150
# 17222
# 35952
# 59990
# 81242
# 102572
# 122492
# 142685
# 159260
# 187765
# 214410
# 231292
#
# Disc length: 3334 seconds
#
#
# Revision: 0
# Processed by: cddbd v1.5.1PL2 Copyright (c) Steve Scherf et al.
# Submitted via: FreeRIP 2.944 
#
DISCID=a90d040c
DTITLE=The Mighty Orq - Milk Money
DYEAR=2006
DGENRE=Blues goes Rock
TTITLE0=Devil at Your Back
TTITLE1=Unholy Getdown
TTITLE2=Heaven Sent
TTITLE3=Sweet Inbetween
TTITLE4=Carry Me Home
TTITLE5=Don´t Wanna
TTITLE6=Long Gone
TTITLE7=She Lets Me Lie
TTITLE8=Won´t Let Go
TTITLE9=Walk Away
TTITLE10=Weak Ender
TTITLE11=2 a. m.
EXTD=Sehr schöner Blues von einer tollen Stimme getragen - der Rock ist vom Feinsten - hier sin Könner am Werk!
EXTT0=
EXTT1=
EXTT2=
EXTT3=
EXTT4=
EXTT5=
EXTT6=
EXTT7=
EXTT8=
EXTT9=
EXTT10=
EXTT11=
PLAYORDER=
